<svg xmlns="http://www.w3.org/2000/svg" xmlns:xlink="http://www.w3.org/1999/xlink" viewBox="0,0,256,256" width="24px" height="24px" fill-rule="nonzero"><g fill="#f9fafb" fill-rule="nonzero" stroke="none" stroke-width="1" stroke-linecap="butt" stroke-linejoin="miter" stroke-miterlimit="10" stroke-dasharray="" stroke-dashoffset="0" font-family="none" font-weight="none" font-size="none" text-anchor="none" style="mix-blend-mode: normal"><g transform="scale(10.66667,10.66667)"><path d="M12,-0.00004c-6.6167,0 -12,5.3833 -12,12c0,5.73828 3.94971,10.78027 9.3916,11.98828c0.14746,0.03271 0.30273,-0.00342 0.42139,-0.09814c0.11816,-0.09522 0.18701,-0.23828 0.18701,-0.39014v-3c0,-0.27637 -0.22363,-0.5 -0.5,-0.5h-1c-1.24756,0 -2.09717,-1.18262 -2.84668,-2.22607c-0.07715,-0.10742 -0.15332,-0.21387 -0.22998,-0.31836c0.35498,0.18799 0.66016,0.41455 0.96143,0.6377c0.60107,0.44531 1.22998,0.8833 2.05322,0.90283c0.06299,0.00586 0.64844,0.06738 1.1001,-0.33008c0.21045,-0.18652 0.46191,-0.53955 0.46191,-1.16602v-0.34863c0,-0.22363 -0.14844,-0.41992 -0.36377,-0.48096c-2.77295,-0.78565 -4.63623,-2.86328 -4.63623,-5.17041c0,-1.19971 0.49268,-2.34521 1.42529,-3.31201c0.14355,-0.14893 0.18066,-0.37012 0.09375,-0.55762c-0.37207,-0.80225 -0.29346,-1.89355 0.14844,-2.54883c0.5835,0.22754 1.34033,0.70459 1.83203,1.28857c0.13525,0.16016 0.35742,0.22021 0.5542,0.14746c1.875,-0.6875 4.01758,-0.6875 5.89258,0c0.19873,0.07373 0.41992,0.01318 0.5542,-0.14746c0.4917,-0.58398 1.24854,-1.06104 1.83203,-1.28857c0.44189,0.65527 0.52051,1.74658 0.14844,2.54883c-0.08691,0.1875 -0.0498,0.40869 0.09375,0.55762c0.93262,0.9668 1.42529,2.1123 1.42529,3.31201c0,2.42188 -2.06982,4.59082 -5.0332,5.27393c-0.15137,0.03516 -0.27783,0.13818 -0.34229,0.2793c-0.06445,0.14111 -0.06006,0.3042 0.0127,0.44141c0.24756,0.46875 0.36279,1.10596 0.36279,2.00537v4c0,0.15186 0.06885,0.29492 0.18701,0.39014c0.08984,0.07178 0.2002,0.10986 0.31299,0.10986c0.03613,0 0.07227,-0.00391 0.1084,-0.01172c5.44189,-1.20801 9.3916,-6.25 9.3916,-11.98828c0,-6.6167 -5.3833,-12 -12,-12zM15,22.85641v-3.35645c0,-0.76465 -0.07764,-1.38428 -0.2417,-1.90137c3.11426,-0.92871 5.2417,-3.37061 5.2417,-6.09863c0,-1.36377 -0.51221,-2.65967 -1.48437,-3.76611c0.4292,-1.24268 0.16455,-2.76074 -0.66211,-3.5874c-0.12549,-0.12646 -0.30859,-0.17725 -0.48145,-0.12988c-0.66797,0.17676 -1.66016,0.6958 -2.40137,1.45117c-1.90527,-0.62109 -4.03613,-0.62109 -5.94141,0c-0.74121,-0.75537 -1.7334,-1.27441 -2.40137,-1.45117c-0.17285,-0.04736 -0.35596,0.00342 -0.48145,0.12988c-0.82666,0.82666 -1.09131,2.34473 -0.66211,3.5874c-0.97217,1.10645 -1.48437,2.40234 -1.48437,3.76611c0,2.65332 1.99365,5.03467 5,6.02149c-0.00244,0.13525 -0.02588,0.30566 -0.12109,0.39209c-0.11621,0.10449 -0.32227,0.08984 -0.37891,0.08643c-0.56152,0 -0.98437,-0.31348 -1.52002,-0.71045c-0.77539,-0.57471 -1.74023,-1.28955 -3.47998,-1.28955c-0.27637,0 -0.5,0.22363 -0.5,0.5c0,0.27637 0.22363,0.5 0.5,0.5c0.36621,0 0.86182,0.68994 1.34131,1.35742c0.8457,1.17725 1.89844,2.64258 3.65869,2.64258h0.5v1.85645c-4.60205,-1.33008 -8,-5.88477 -8,-10.85645c0,-6.06543 4.93457,-11 11,-11c6.06543,0 11,4.93457 11,11c0,4.97168 -3.39795,9.52637 -8,10.85645z"></path></g></g></svg>